<svg id="Layer_1" data-name="Layer 1" xmlns="http://www.w3.org/2000/svg" viewBox="0 0 485.61 475.45"><defs><style>.cls-1,.cls-4,.cls-7{fill:#fef8df;}.cls-1{stroke:#991b30;stroke-linecap:round;stroke-linejoin:round;}.cls-1,.cls-7{stroke-width:4px;}.cls-2{fill:#991a2f;}.cls-3,.cls-6{fill:#ee2b4f;}.cls-3{stroke:#ed184a;}.cls-3,.cls-7{stroke-miterlimit:10;}.cls-5{fill:#fff;}.cls-7{stroke:#991a2f;}.cls-8{fill:#ea58a0;}</style></defs><path d="M180,400.68" transform="translate(-37.12 -22.21)"/><path d="M191.79,367.08" transform="translate(-37.12 -22.21)"/><path d="M170.39,378.24" transform="translate(-37.12 -22.21)"/><path class="cls-1" d="M113,367.22a19.64,19.64,0,0,1-7.07,5.3,16.31,16.31,0,0,1-8.53,1.3,15.56,15.56,0,0,1-8.41-3.9,17.05,17.05,0,0,1-2.34-2.41Q82.78,362,78.24,349.2l-4-10.13q-1.89-5.32-5.65-14.59A195.55,195.55,0,0,0,60,306q-4.91-9.21-10-13.56a10.13,10.13,0,0,0-5.69-2.66,4.83,4.83,0,0,1-3-1.1,5.62,5.62,0,0,1-1.82-3,8.69,8.69,0,0,1-.18-3.65,23.79,23.79,0,0,1,5.49-11.4,18.57,18.57,0,0,1,5-4.17,10.82,10.82,0,0,1,5.81-1.42,10.28,10.28,0,0,1,6.15,2.78,28.67,28.67,0,0,1,6.39,8.91L70.2,281l1.12,2.06-7.65-16.59q-6-13.6.33-22.4l.87-1.18q3.94-4.6,11.68-6.1a21.46,21.46,0,0,1,12.84,1.77A48.69,48.69,0,0,1,100,245.42a52.86,52.86,0,0,1,11.93,15,62.65,62.65,0,0,1,6.72,18.81,51.93,51.93,0,0,1,0,19.41,35.73,35.73,0,0,1-8.07,16.82A29,29,0,0,1,94,324.86q3.66,8.08,7.15,11.07a4.13,4.13,0,0,0,3.35,1.22l1.81-.66q2.52-.87,5.3,1.51a20.11,20.11,0,0,1,5.48,8.53,21.72,21.72,0,0,1-4.1,20.69Zm-16.79-57.8q2.71-3.17,2.52-9.12a47.42,47.42,0,0,0-2.27-12.53,68.42,68.42,0,0,0-5.14-12.22A31.4,31.4,0,0,0,85,267a16.29,16.29,0,0,0-4.63-2.94c-1.45-.55-2.52-.43-3.2.37q-1.83,2.13,1.67,10.09,2.53,5.87,5.85,14.21,2.86,7.39,4.86,12,1.41,3,3,6.51L94.16,311A6.34,6.34,0,0,0,96.18,309.42Z" transform="translate(-37.12 -22.21)"/><path class="cls-1" d="M148,283.39q-5.57,2.63-12-.17t-10.43-11.29l-.26-.57q-6.09-14.33-4.65-34.87t11-36q6.23-8.83,13.78-12.4a23.49,23.49,0,0,1,17.56-1.5q8.67,2.72,13,11.87a35.84,35.84,0,0,1,3,14.87c-.06,4.26,0,7.49.07,9.67a26.78,26.78,0,0,0,1.53,8.86c1.17,2.45,2.72,3.22,4.67,2.29s3.84-3.85,5.48-8.71a86.57,86.57,0,0,0,3.07-14.5l8.09-.25q0,12.38-.23,19a63.5,63.5,0,0,1-3.4,20.67,29.53,29.53,0,0,1-5.44,9.39,22.78,22.78,0,0,1-7.23,5.61,16.52,16.52,0,0,1-13,.72q-6.59-2.31-10.38-10.33a35,35,0,0,1-2.24-6.45l-1.52,15.85a27.47,27.47,0,0,1-3.62,11.76A16.54,16.54,0,0,1,148,283.39Zm-.29-33.13c1.19-.56,2.26-2.87,3.19-6.93q1.22-6.71,3.31-27l.17-1.58q.84-10.22-.68-13.42c-.63-1.32-1.44-1.75-2.45-1.27-.82.39-1.67,1.52-2.55,3.4a36.38,36.38,0,0,0-2.38,7.94,143.68,143.68,0,0,0-1.93,15.7,103.29,103.29,0,0,0-.1,15.18,21.7,21.7,0,0,0,1.34,6.75q.85,1.8,2,1.26Z" transform="translate(-37.12 -22.21)"/><path class="cls-1" d="M225,255.56A19.14,19.14,0,0,1,210.64,251q-6.4-5.24-7.25-14.59-.75-8.33,4.08-19.77L209.9,211q5.31-11.9,9.65-24.3A71.68,71.68,0,0,0,224,164.23l-.09-1c-.26-2.77-1.33-4.6-3.23-5.47a2,2,0,0,1-1.31-1.77,6.65,6.65,0,0,1,.51-3,18.67,18.67,0,0,1,1.47-3,21.53,21.53,0,0,1,8.28-8.14,27.38,27.38,0,0,1,11.11-3.57,18.27,18.27,0,0,1,10.74,2.12q4.8,2.66,5.4,9.2.51,5.73-3.09,14.54l-4.37,9.73q-5.35,11.49-10.58,24.44-6.17,15.33-6.1,24.14c.22,2.42,1.05,3.57,2.51,3.44q2.5-.22,5.71-4.14a71.82,71.82,0,0,0,5.91-8.34c1.79-3,3.08-5.21,3.85-6.74l7.57,2.56q-2.25,6.39-6.67,17.8a80.54,80.54,0,0,1-10,18.83Q234.42,254.71,225,255.56Z" transform="translate(-37.12 -22.21)"/><path class="cls-1" d="M277,256.08a24.78,24.78,0,0,1-11.67-6.52,25.32,25.32,0,0,1-6.71-11.95,32,32,0,0,1,.33-15.74q4.13-15.23,18-29.07,13-12.88,28.73-16.7a34.61,34.61,0,0,1,15,0,21.66,21.66,0,0,1,14.71,11.38q4.57,8.84,1.69,20.38a47.46,47.46,0,0,1-2.15,6.46A74.15,74.15,0,0,1,326.31,229q7.43.9,14.54-5.61l6.21,4.89L341.43,234a54.82,54.82,0,0,1-12.89,9.8q-6.21,2.86-11,1.67a12.57,12.57,0,0,1-4.44-2.08q-4.26,3.68-8.44,6.61a40.52,40.52,0,0,1-14.48,6.22A30.05,30.05,0,0,1,277,256.08ZM294.86,229q3.75.93,9.83-4.43a27.85,27.85,0,0,1,.84-7.22,23.61,23.61,0,0,1,5.15-9.85,19.18,19.18,0,0,1,10.43-6l.55-1.79c.71-2.84.36-4.86-1.06-6.08a3.11,3.11,0,0,0-1.06-.48q-3.56-.89-9.52,3.38a57.52,57.52,0,0,0-11.27,10.84Q293.44,214,291.94,220a10.2,10.2,0,0,0,.44,6.89A4,4,0,0,0,294.86,229Z" transform="translate(-37.12 -22.21)"/><path class="cls-1" d="M387.17,318.81a17.8,17.8,0,0,1-5.52-13.12q-.06-7.79,6.58-14.58A40,40,0,0,1,401,282.83q7.8-3.18,15.23-5.42,5.51-1.76,9.7-3.36a14.21,14.21,0,0,0,4.84-2.86q1.9-1.95.48-3.33-2.48-2.42-11.46-.75a97.18,97.18,0,0,0-18.43,5.42q-9.45,3.77-13.24,7.65a4.82,4.82,0,0,0-1.66,3.34q.21,5.31-2.7,8.3Q380,295.63,373,295.64a21.93,21.93,0,0,1-8.14-1.38,18.66,18.66,0,0,1-6.33-4,15.34,15.34,0,0,1-4.7-10.44q-.37-6.19,5.46-12.17a38.69,38.69,0,0,1,10.55-7.21,176.12,176.12,0,0,1,19.11-7.17q6.18-2,11.55-4.05a15.2,15.2,0,0,0,4.69-2.86q2-2,.62-3.33-2.39-2.34-11.71-.71a109.36,109.36,0,0,0-19,5.2q-9.71,3.58-13.14,7.1a3.42,3.42,0,0,0-1.22,2.75,7.93,7.93,0,0,1-2.34,7.63,16.48,16.48,0,0,1-7.41,4.22,19.54,19.54,0,0,1-8.26.76,21.59,21.59,0,0,1-11.07-5.56,18.24,18.24,0,0,1-5.57-11.49q-.72-6.75,4.75-12.35a19.52,19.52,0,0,1,2.64-2.25q5.79-3.54,19.11-7.16a150.57,150.57,0,0,0,21-7.34,18.15,18.15,0,0,0,5.13-3.45,5.26,5.26,0,0,0,1.73-3.72,5.1,5.1,0,0,1,1.35-3.78,8.06,8.06,0,0,1,5.37-2.2,18.59,18.59,0,0,1,8.24.82,16.81,16.81,0,0,1,6.36,3.81,12.39,12.39,0,0,1,3.83,7.82q.46,4.53-3.55,8.65a17.24,17.24,0,0,1-2.41,2q21.89-4.47,31.45,4.88a15.68,15.68,0,0,1,4.76,8.95,14.63,14.63,0,0,1-1.94,9.85,59.4,59.4,0,0,1,8.86.12,23.84,23.84,0,0,1,7.89,2,20.71,20.71,0,0,1,5.92,4,15.51,15.51,0,0,1,4.94,10.87,15,15,0,0,1-4.66,11.28,23.93,23.93,0,0,1-7.25,4.89,81.63,81.63,0,0,1-14.28,4.59q-14.43,3.27-18.37,7.31a3.94,3.94,0,0,0-1.13,4.14,3.07,3.07,0,0,0,.68,1q1.94,1.89,7,1.84a63.33,63.33,0,0,0,10.1-.93q5-.87,7.3-1.42l3,7.43Q432.29,318.81,426,321a83,83,0,0,1-12.81,3.54,34.34,34.34,0,0,1-15.33,0A23.38,23.38,0,0,1,387.17,318.81Z" transform="translate(-37.12 -22.21)"/><path class="cls-1" d="M401.22,350a16.48,16.48,0,0,1,1.15-13.38q3.44-6.54,12.34-9.52,7-2.34,17.27-1.68,8.75.83,16.71,2.24,5.34.87,9.47,1.36a14.46,14.46,0,0,0,5.62-.33c1.78-.6,2.73-1.58,2.87-2.94a4.09,4.09,0,0,1,2.47-2.81q2.78-.93,6.61,1a25.87,25.87,0,0,1,7.71,6.46,27.06,27.06,0,0,1,4.94,8.7,15.5,15.5,0,0,1,.47,9q-1.12,4.23-6.18,5.91-4.05,1.37-11.06.5-6.14-.93-11.82-2.12a123.89,123.89,0,0,0-14.92-2.51,17.48,17.48,0,0,0-7.7.37,4,4,0,0,0-2.93,3.07,3,3,0,0,0,.16,1.16q.9,2.67,5.45,4.95a62.89,62.89,0,0,0,9.42,3.8c3.23,1,5.61,1.71,7.13,2.08l-.76,8q-12.28-1.51-18.88-2.51-19-2.47-28.07-10.24A24.27,24.27,0,0,1,401.22,350Zm93.53-4.33a13.09,13.09,0,0,1,.71-10.26,13.11,13.11,0,0,1,17.83-5.95,13.5,13.5,0,0,1,6,18,12.61,12.61,0,0,1-7.6,6.72,12.79,12.79,0,0,1-10.22-.77A13.08,13.08,0,0,1,494.75,345.62Z" transform="translate(-37.12 -22.21)"/><path class="cls-2" d="M143.27,63c9.33-13,28.8-7.84,34.75,4.12a6.48,6.48,0,0,0,4.52,3.7c7,2,11.51,8.86,12,17.35.46,7.86-2.29,14-9.35,18a5.19,5.19,0,0,0-1.91,2.78c-2.79,8.14-10.61,14.15-18.72,12.64-5.1-1-9.42-.46-14.36.61A20.64,20.64,0,0,1,126,108a13.66,13.66,0,0,1-.83-5.52c.61-4.06-.88-7.2-2.72-10.73-6.15-11.83-.06-25.82,12.29-28.71C137.42,62.43,140.39,63,143.27,63Zm3.24,33.65c-.69,3.22-3.93,4.29-13.35,4,.11,1,.13,1.93.33,2.86,1.15,5.36,4,9.43,9.53,10.71,5.23,1.21,9.84,0,13.11-4.72a18.85,18.85,0,0,1,2.84-2.67c2.63,6.38,4.45,7.92,8.26,7.3a8.87,8.87,0,0,0,7.25-7.93c-4.31-1-8.85-1.78-10.39-7.2,10.59,4.11,19,2.17,21.74-4.88,2.57-6.58,0-13.8-5.56-15.82-2.57,5.52-7.24,8.23-12.37,7.19,6.35-4.51,7.59-8.78,4-14.75-2.85-4.76-7.25-7.61-12.74-7.74-2.54-.05-5.26,1.3-7.63,2.54s-2.91,3.38-1.43,5.88c1.9,3.22,1.39,6.24-1,9.12a12.08,12.08,0,0,1-.82-2c-.94-4.12-3.16-7.21-7.49-7.84s-8,1.23-10.86,4.48c-5.21,6-1,17.88,7.37,20.49C140.19,96.58,143.45,96.34,146.51,96.62Z" transform="translate(-37.12 -22.21)"/><path class="cls-2" d="M324.88,55.12c-.25,5.73-3.66,12-12.13,15a4.45,4.45,0,0,0-2.07,2.54C306.83,82.72,296.54,90,286.15,89.85c-8.72-.11-14.95-5.47-16.58-14.07a3.71,3.71,0,0,0-1.95-2.21c-8.49-4.06-10.88-11.31-10.57-20,.27-7.21,5.59-14.15,12.51-16.81a5,5,0,0,0,2.36-2.29C278.09,22.07,294.79,18,305,27.25a69.24,69.24,0,0,0,12.43,9.39C322.63,39.6,325,45.69,324.88,55.12ZM283,53.64c-1.86,6.6-4,13.09,5.52,14.94-1.85,4.47-5.36,3.7-9.62,3.54.95,2.55,1.31,4.86,2.54,6.52,3,4,8.76,4.65,13.75,1.61,4.74-2.89,7.85-7,8.42-12.74.26-2.59.8-4.41,4.34-4.34,5.34.09,9.51-4.79,9.58-10.28.08-6.67-3.67-11.52-9.2-12.27-4.77-.65-8.48.9-11.21,5.26-1.1-5.11,2.16-7.34,5.08-9.7-2.73-5.19-7.17-6.52-12.33-6.27a12.12,12.12,0,0,0-11.29,7.81,4,4,0,0,0,.17,3.37c1.87,2.48,1.14,4.42-.59,6.5-3-4.15-5.65-4.65-9-1.8-5.71,4.79-5.59,15.86.43,20.2,1.34,1,3.46.87,5.22,1.26a19.84,19.84,0,0,0,.86-4.1C275.64,57.89,277.82,54.76,283,53.64Z" transform="translate(-37.12 -22.21)"/><path class="cls-2" d="M234.88,129.07a75.73,75.73,0,0,1-1-8.84c0-12-.51-23.88-4.15-35.33-2.18-6.87-5.39-13.43-8.12-20.14a9.74,9.74,0,0,1-1.07-3.4c0-1.06.48-2.82,1.14-3a5.28,5.28,0,0,1,3.91.5,9.31,9.31,0,0,1,2.61,3.34A77.67,77.67,0,0,1,238.36,98c.4,8.7.2,17.42,0,26.13,0,1.72-1.18,3.42-1.82,5.13Z" transform="translate(-37.12 -22.21)"/><path class="cls-2" d="M276.14,136.64a54.09,54.09,0,0,1,2-5.38c5.73-11.5,12.65-22,24.74-27.81a11.47,11.47,0,0,1,4.63-1.48c1.31,0,2.62,1,3.92,1.63-.73,1.18-1.18,2.81-2.24,3.45-7.21,4.38-14,9.27-19.53,15.67-2.95,3.42-5.5,7.17-8.37,10.66a46.81,46.81,0,0,1-4.19,4Z" transform="translate(-37.12 -22.21)"/><path class="cls-2" d="M211.65,149.42a30.38,30.38,0,0,1-3-4.51,69.25,69.25,0,0,0-17-23.76c-1.37-1.25-3.54-2.76-1.79-5,1.92-2.42,4.29-.8,5.81.58A51.61,51.61,0,0,1,212.5,147.4a11.08,11.08,0,0,1,0,1.63Z" transform="translate(-37.12 -22.21)"/><path class="cls-2" d="M257.35,124.4a105.88,105.88,0,0,1,8.78-27.89c.93-1.93,2.76-3.09,4.53-1.83A4.79,4.79,0,0,1,272,99c-3.58,8.62-7.46,17.11-11.37,25.58-.37.79-1.59,1.18-2.42,1.76C257.89,125.65,257.57,124.92,257.35,124.4Z" transform="translate(-37.12 -22.21)"/><path class="cls-3" d="M146.51,96.62c-3.06-.28-6.32,0-9.23-.94-8.41-2.61-12.58-14.5-7.37-20.49,2.82-3.25,6.52-5.11,10.86-4.48s6.55,3.72,7.49,7.84a12.08,12.08,0,0,0,.82,2c2.42-2.88,2.93-5.9,1-9.12-1.48-2.5-.9-4.66,1.43-5.88s5.09-2.59,7.63-2.54c5.49.13,9.89,3,12.74,7.74,3.58,6,2.34,10.24-4,14.75,5.13,1,9.8-1.67,12.37-7.19,5.59,2,8.13,9.24,5.56,15.82-2.75,7-11.15,9-21.74,4.88,1.54,5.42,6.08,6.2,10.39,7.2a8.87,8.87,0,0,1-7.25,7.93c-3.81.62-5.63-.92-8.26-7.3a18.85,18.85,0,0,0-2.84,2.67c-3.27,4.72-7.88,5.93-13.11,4.72-5.56-1.28-8.38-5.35-9.53-10.71-.2-.93-.22-1.9-.33-2.86C142.58,100.91,145.82,99.84,146.51,96.62Z" transform="translate(-37.12 -22.21)"/><path class="cls-3" d="M283,53.64c-5.17,1.12-7.35,4.25-7.38,9.51a19.84,19.84,0,0,1-.86,4.1c-1.76-.39-3.88-.29-5.22-1.26-6-4.34-6.14-15.41-.43-20.2,3.4-2.85,6.08-2.35,9,1.8,1.73-2.08,2.46-4,.59-6.5a4,4,0,0,1-.17-3.37,12.12,12.12,0,0,1,11.29-7.81c5.16-.25,9.6,1.08,12.33,6.27-2.92,2.36-6.18,4.59-5.08,9.7,2.73-4.36,6.44-5.91,11.21-5.26,5.53.75,9.28,5.6,9.2,12.27-.07,5.49-4.24,10.37-9.58,10.28-3.54-.07-4.08,1.75-4.34,4.34-.57,5.74-3.68,9.85-8.42,12.74-5,3-10.75,2.42-13.75-1.61-1.23-1.66-1.59-4-2.54-6.52,4.26.16,7.77.93,9.62-3.54C279,66.73,281.13,60.24,283,53.64Z" transform="translate(-37.12 -22.21)"/><path d="M349.16,422.57a48,48,0,0,1-3.82,13.87A33.34,33.34,0,0,0,349.16,422.57Z" transform="translate(-37.12 -22.21)"/><path class="cls-2" d="M343.84,401.09c13.75-5.28,18.81-17,22.27-30,.34-1.29,3-8.09-2.22-16.54-5.19-11.05-13.9-17.69-26-19.5.11-24.94-15-44.37-37.8-50.06a46.79,46.79,0,0,0-27.8,1.63c-12.58,4.6-23.19,11.68-28.06,25-7.86-3-15.44-2.37-23.44-.38.08-.41-7.79,2.35-7.55,3.13-12.87,1.31-32.74,35.7-17.6,46.7l4.28,5.94a7.4,7.4,0,0,1-.23,9h0a15.26,15.26,0,0,1-3.47,3.43c-23.51,15.39-1.3,57.73,22,57.64,3.29.33,6.59.7,10,1.07,1.41,2.62,2.75,5.86,4.74,8.64,11.87,16.64,38.73,22.05,56.28,11.57,1.21-.72,3.68-1.59,4.45-.6,13.48,17.32,48-10.68,51.77-21.28a48,48,0,0,0,3.82-13.87C349.49,415.46,347.5,408.32,343.84,401.09Z" transform="translate(-37.12 -22.21)"/><path d="M339.31,418.26c-.48-9.11-6.74-18.26-14.64-21.79,2.45-1.07,4.83-2.76,7.38-3.09,11.72-1.52,17.93-8.87,21.32-19.37a19.4,19.4,0,0,0-11.14-23.6c-5.7-2.36-11.13-1.22-16.71.39-1.88.54-4,.19-6,.24.64-2,1.17-4.07,2-6,1.22-3,3.21-5.91,3.82-9,1.82-9.48-.66-18.18-6-26.06-9.41-13.76-24.69-19.18-41.32-14.52a32.92,32.92,0,0,0-16.84,10.85c-4.93,6-6.62,12.74-5.57,20.46.23,1.71-1.37,3.94-2.7,5.41-.36.39-2.88-1-4.32-1.8a14.5,14.5,0,0,1-2.54-1.9c-7.68-6.46-16.24-7.55-25.31-3.67-9.46,4.05-14.81,11.61-16.25,21.61-1.5,10.47,3.13,17.87,13.61,22.6,2.89,1.3,4.78,2.79,3.41,5A43.72,43.72,0,0,0,211,379.82c-12.87,9.66-12.77,28.57.27,36.91,8.31,5.32,19.42,6.17,26.73-.56.81-.75,2.32-.73,3.51-1.07,0,1.12.38,2.37,0,3.33-2.85,7.42-.28,13.76,4.42,19.15,10,11.43,35.49,14.3,44.67-4,.36-.72,1.49-1.75,1.91-1.61a3.67,3.67,0,0,1,2.08,2c2.5,7.87,8.92,10.77,16.07,11.8C327.29,448.17,340.23,435.51,339.31,418.26Z" transform="translate(-37.12 -22.21)"/><path d="M339.31,418.26c-.48-9.11-6.74-18.26-14.64-21.79,2.45-1.07,4.83-2.76,7.38-3.09,11.72-1.52,17.93-8.87,21.32-19.37a19.4,19.4,0,0,0-11.14-23.6c-5.7-2.36-11.13-1.22-16.71.39-1.88.54-4,.19-6,.24.64-2,1.17-4.07,2-6,1.22-3,3.21-5.91,3.82-9,1.82-9.48-.66-18.18-6-26.06-9.41-13.76-24.69-19.18-41.32-14.52a32.92,32.92,0,0,0-16.84,10.85c-4.93,6-6.62,12.74-5.57,20.46.23,1.71-1.37,3.94-2.7,5.41-.36.39-2.88-1-4.32-1.8a14.5,14.5,0,0,1-2.54-1.9c-7.68-6.46-16.24-7.55-25.31-3.67-9.46,4.05-14.81,11.61-16.25,21.61-1.5,10.47,3.13,17.87,13.61,22.6,2.89,1.3,4.78,2.79,3.41,5A43.72,43.72,0,0,0,211,379.82c-12.87,9.66-12.77,28.57.27,36.91,8.31,5.32,19.42,6.17,26.73-.56.81-.75,2.32-.73,3.51-1.07,0,1.12.38,2.37,0,3.33-2.85,7.42-.28,13.76,4.42,19.15,10,11.43,35.49,14.3,44.67-4,.36-.72,1.49-1.75,1.91-1.61a3.67,3.67,0,0,1,2.08,2c2.5,7.87,8.92,10.77,16.07,11.8C327.29,448.17,340.23,435.51,339.31,418.26Z" transform="translate(-37.12 -22.21)"/><path class="cls-4" d="M339.31,418.26c-.48-9.11-6.74-18.26-14.64-21.79,2.45-1.07,4.83-2.76,7.38-3.09,11.72-1.52,17.93-8.87,21.32-19.37a19.4,19.4,0,0,0-11.14-23.6c-5.7-2.36-11.13-1.22-16.71.39-1.88.54-4,.19-6,.24.64-2,1.17-4.07,2-6,1.22-3,3.21-5.91,3.82-9,1.82-9.48-.66-18.18-6-26.06-9.41-13.76-24.69-19.18-41.32-14.52a32.92,32.92,0,0,0-16.84,10.85c-4.93,6-6.62,12.74-5.57,20.46.23,1.71-1.37,3.94-2.7,5.41-.36.39-2.88-1-4.32-1.8a14.5,14.5,0,0,1-2.54-1.9c-7.68-6.46-16.24-7.55-25.31-3.67-9.46,4.05-14.81,11.61-16.25,21.61-1.5,10.47,3.13,17.87,13.61,22.6,2.89,1.3,4.78,2.79,3.41,5A43.72,43.72,0,0,0,211,379.82c-12.87,9.66-12.77,28.57.27,36.91,8.31,5.32,19.42,6.17,26.73-.56.81-.75,2.32-.73,3.51-1.07,0,1.12.38,2.37,0,3.33-2.85,7.42-.28,13.76,4.42,19.15,10,11.43,35.49,14.3,44.67-4,.36-.72,1.49-1.75,1.91-1.61a3.67,3.67,0,0,1,2.08,2c2.5,7.87,8.92,10.77,16.07,11.8C327.29,448.17,340.23,435.51,339.31,418.26Zm-32-61.09c4.84,1.6,7.13,8.48,4.65,15.11a32.34,32.34,0,0,1-4.32,7.48c-2.2,3-5.49,3.67-8.92,2.68a7.67,7.67,0,0,1-5.79-6.89c-.28-3.21.24-6.5.41-9.75C296.57,359.21,302.24,355.51,307.31,357.17Zm-52.75-8.63c2.84-3.59,6.67-4.78,10.54-3.4,3.65,1.31,5.8,4.5,5.68,9.06a52.52,52.52,0,0,1-1.12,7.08,50.52,50.52,0,0,1-4,6c-2.45,2.78-5.66,4.06-9.33,2.83s-5.67-4.34-6-8.17A18.7,18.7,0,0,1,254.56,348.54Zm47.59,55.72c-.92-.78-1.87-1.52-2.74-2.35a8,8,0,0,1-.9-1.55c-4.88,6.88-10.66,12.05-18.46,14.81-8.35,2.95-15.46,1-21.42-5.14-5.67-5.86-9-13.08-11.16-20.88a17.85,17.85,0,0,0-.68-1.85l-4.88,1.16c.16-1.85-.34-4.28.65-5.4a13.36,13.36,0,0,1,6.26-3.8c3.36-.92,5.22,1.25,4.83,4.7a6.33,6.33,0,0,0,.36,3.33c7.16,14.83,23.71,19.8,37.63,11.32a5.32,5.32,0,0,0,1.81-2.37c1.75-3.89,4.73-4.87,7.72-1.87,1.62,1.62,2.54,4.2,3.12,6.51C304.51,401.78,302.91,403.12,302.15,404.26Z" transform="translate(-37.12 -22.21)"/><path class="cls-5" d="M246.67,387l.12.31.35-.08C246.44,386.87,246.63,386.9,246.67,387Z" transform="translate(-37.12 -22.21)"/><path class="cls-6" d="M247.14,387.22l-5.23,1.24c.16-1.85-.34-4.28.65-5.4a13.36,13.36,0,0,1,6.26-3.8c3.36-.92,5.22,1.25,4.83,4.7a6.33,6.33,0,0,0,.36,3.33c7.16,14.83,23.71,19.8,37.63,11.32a5.32,5.32,0,0,0,1.81-2.37c1.75-3.89,4.73-4.87,7.72-1.87,1.62,1.62,2.54,4.2,3.12,6.51.22.9-1.38,2.24-2.14,3.38-.92-.78-1.87-1.52-2.74-2.35a8,8,0,0,1-.9-1.55c-4.88,6.88-10.66,12.05-18.46,14.81-8.35,2.95-15.46,1-21.42-5.14-5.67-5.86-9-13.08-11.16-20.88-.21-.74-.52-1.44-.8-2.16C246.63,386.9,246.44,386.87,247.14,387.22Z" transform="translate(-37.12 -22.21)"/><path class="cls-6" d="M269.66,361.28a50.52,50.52,0,0,1-4,6c-2.45,2.78-5.66,4.06-9.33,2.83s-5.67-4.34-6-8.17a18.7,18.7,0,0,1,4.16-13.36c2.84-3.59,6.67-4.78,10.54-3.4,3.65,1.31,5.8,4.5,5.68,9.06A52.52,52.52,0,0,1,269.66,361.28Z" transform="translate(-37.12 -22.21)"/><path class="cls-6" d="M293.34,365.8c3.23-6.59,8.9-10.29,14-8.63,4.85,1.6,7.14,8.48,4.66,15.11a32.34,32.34,0,0,1-4.32,7.48c-2.2,3-5.49,3.67-8.92,2.68a7.67,7.67,0,0,1-5.79-6.89C292.65,372.34,293.17,369.05,293.34,365.8Z" transform="translate(-37.12 -22.21)"/><path class="cls-7" d="M201.22,417a43.53,43.53,0,0,1-13.3,27,42.92,42.92,0,0,1-27.4,12.53,44.43,44.43,0,0,1-17.22-1.87v38.66a2.29,2.29,0,0,1-.69,1.69,2.32,2.32,0,0,1-1.68.68H110.72a2.34,2.34,0,0,1-2.37-2.37V371.69a2.5,2.5,0,0,1,.69-1.75,2.17,2.17,0,0,1,1.68-.75h32.7v.25a42.87,42.87,0,0,1,13.36-2.12,43.69,43.69,0,0,1,18.35,4A45,45,0,0,1,201.22,417Zm-35.64,3.93a12.54,12.54,0,0,0-8.86-21.39,11.88,11.88,0,0,0-8.8,3.68,12.64,12.64,0,0,0,0,17.71,11.84,11.84,0,0,0,8.8,3.68A12.07,12.07,0,0,0,165.58,420.89Z" transform="translate(-37.12 -22.21)"/><path class="cls-7" d="M449,417a43.53,43.53,0,0,1-13.3,27,42.94,42.94,0,0,1-27.4,12.53,44.41,44.41,0,0,1-17.22-1.87v38.66a2.29,2.29,0,0,1-.69,1.69,2.32,2.32,0,0,1-1.68.68H358.49a2.32,2.32,0,0,1-1.69-.68,2.28,2.28,0,0,1-.68-1.69V371.69a2.49,2.49,0,0,1,.68-1.75,2.2,2.2,0,0,1,1.69-.75h32.7v.25a42.87,42.87,0,0,1,13.36-2.12,43.69,43.69,0,0,1,18.35,4A45.08,45.08,0,0,1,449,417Zm-35.64,3.93a12.54,12.54,0,0,0-8.86-21.39,11.88,11.88,0,0,0-8.8,3.68,12.64,12.64,0,0,0,0,17.71,11.84,11.84,0,0,0,8.8,3.68A12.07,12.07,0,0,0,413.35,420.89Z" transform="translate(-37.12 -22.21)"/><circle class="cls-8" cx="202.86" cy="347.61" r="5.58"/><circle class="cls-8" cx="274.74" cy="368.45" r="5.58"/></svg>